<?xml version="1.0" encoding="UTF-8"?>
<svg width="24px" height="24px" viewBox="0 0 24 24" version="1.1" xmlns="http://www.w3.org/2000/svg" xmlns:xlink="http://www.w3.org/1999/xlink">
    <title>Icons / Santander / ic_std_pix</title>
    <g id="Icons-/-Santander-/-ic_std_pix" stroke="none" stroke-width="1" fill="none" fill-rule="evenodd">
        <path d="M10.9394839,14.1819805 C11.5252703,13.5961941 12.4750178,13.5961941 13.0608042,14.1819805 L13.0608042,14.1819805 L15.6465907,16.767767 C15.9688334,17.0900097 16.395181,17.2864262 16.8287754,17.3212445 L16.8287754,17.3212445 L17.0199404,17.3288192 C17.455566,17.3460803 17.661973,17.8737049 17.3536974,18.1819805 L17.3536974,18.1819805 L14.4750178,21.0606602 C13.1081828,22.4274952 10.8921053,22.4274952 9.52527032,21.0606602 L9.52527032,21.0606602 L6.64659067,18.1819805 C6.33160824,17.8669981 6.55469163,17.3284271 7.00014406,17.3284271 L7.00014406,17.3284271 L7.16845401,17.3210185 C7.61444328,17.2816683 8.03459996,17.0868644 8.35369745,16.767767 L8.35369745,16.767767 Z M12.3536974,14.8890873 C12.1584353,14.6938252 11.8418528,14.6938252 11.6465907,14.8890873 L11.6465907,14.8890873 L9.06080423,17.4748737 C8.81238557,17.7232924 8.52373538,17.9222299 8.21016779,18.065343 L8.21016779,18.065343 L8.02314406,18.1444271 L10.2323771,20.3535534 C11.2086878,21.3298641 12.7916003,21.3298641 13.767911,20.3535534 L13.767911,20.3535534 L15.9791441,18.1434271 L15.7795621,18.0604989 C15.5316645,17.9461563 15.299742,17.7969507 15.0912977,17.616251 L15.0912977,17.616251 L14.9394839,17.4748737 Z M7,7.5 C7.39589237,7.5 8.15008608,8.18754911 9.98206283,10.1118727 L9.98206283,10.1118727 L10.608915,10.7736737 C11.3668525,11.5771726 12.6326497,11.6140977 13.4309084,10.8611611 L13.4309084,10.8611611 L16.3552796,7.93916508 C16.6365699,7.65796741 17.0180259,7.5 17.415765,7.5 L17.415765,7.5 L18.2240359,7.5 C18.5978523,7.5 18.9581985,7.63957946 19.2344757,7.89139206 L19.2344757,7.89139206 L21.2468326,9.72555304 C22.5531783,10.9162206 22.6469539,12.9404498 21.4562863,14.2467955 C21.4231649,14.2831347 21.3892106,14.3187058 21.3544502,14.3534805 L21.3544502,14.3534805 L19.6481924,16.0604416 C19.3668701,16.3418799 18.9852455,16.5 18.5873137,16.5 L18.5873137,16.5 L17.415765,16.5 C17.0180259,16.5 16.6365699,16.3420326 16.3552796,16.0608349 L16.3552796,16.0608349 L13.4146686,13.1211928 C12.6332669,12.3405146 11.366954,12.3406189 10.5857864,13.1213203 L10.5857864,13.1213203 L7.64644661,16.0606602 C7.36514204,16.3419647 6.98361117,16.5 6.58578644,16.5 L6.58578644,16.5 L5.7800252,16.5 C5.40646372,16.5 5.0463444,16.3606104 4.77013167,16.1091055 L4.77013167,16.1091055 L2.8598489,14.3697018 C1.55109871,13.1780223 1.4561942,11.1510235 2.64787375,9.84227332 C2.71518702,9.76834718 2.78592277,9.69761144 2.8598489,9.63029816 L2.8598489,9.63029816 L4.77013167,7.89089448 C5.0463444,7.6393896 5.40646372,7.5 5.7800252,7.5 L5.7800252,7.5 Z M18.2240359,8.5 L17.415765,8.5 C17.2831853,8.5 17.1560333,8.5526558 17.0622699,8.64638836 L17.0622699,8.64638836 L14.1223342,11.5835722 C13.9832678,11.7147555 13.834969,11.8300649 13.6796733,11.9295655 L13.6796733,11.9295655 L13.582,11.987 L13.6707368,12.0429239 C13.7767811,12.1141129 13.8792891,12.1927966 13.9775163,12.2789751 L13.9775163,12.2789751 L14.1215533,12.413864 L17.0622699,15.3536116 C17.1560333,15.4473442 17.2831853,15.5 17.415765,15.5 L17.415765,15.5 L18.5873137,15.5 C18.7199576,15.5 18.8471658,15.4472933 18.9409399,15.3534805 L18.9409399,15.3534805 L20.6471977,13.6465195 L20.7172143,13.573169 C21.5358483,12.6750015 21.4713736,11.283259 20.5732061,10.464625 L20.5732061,10.464625 L18.5608492,8.63046402 C18.4687568,8.54652649 18.3486414,8.5 18.2240359,8.5 L18.2240359,8.5 Z M7,8.5 L5.7800252,8.5 C5.65550471,8.5 5.53546494,8.5464632 5.44339402,8.63029816 L5.44339402,8.63029816 L3.53311126,10.3697018 C3.48225185,10.4160118 3.43358735,10.4646763 3.38727742,10.5155357 C2.56743042,11.4159245 2.63272245,12.8104512 3.53311126,13.6302982 L3.53311126,13.6302982 L5.44339402,15.3697018 C5.53546494,15.4535368 5.65550471,15.5 5.7800252,15.5 L5.7800252,15.5 L6.58578644,15.5 C6.71839468,15.5 6.84557164,15.4473216 6.93933983,15.3535534 L6.93933983,15.3535534 L9.87878517,12.4141081 C10.0193896,12.2735875 10.170468,12.1499272 10.3295071,12.0431275 L10.3295071,12.0431275 L10.479,11.948 L10.4550067,11.9343259 C10.3007537,11.8361982 10.1536621,11.7226748 10.0159677,11.5938209 L10.0159677,11.5938209 L9.8814883,11.4598592 C8.90662088,10.42641 8.15130135,9.65247389 7.61751024,9.13980863 L7.61751024,9.13980863 L7.46751801,8.99714543 C7.27641465,8.81730997 7.12099379,8.67909681 7.00290406,8.5836318 L7.00290406,8.5836318 L6.94156385,8.53139379 C6.92589769,8.51228035 6.93412881,8.5 7,8.5 L7,8.5 Z M9.52512627,2.76776695 C10.8919613,1.40093193 13.1080387,1.40093193 14.4748737,2.76776695 L14.4748737,2.76776695 L17.3535534,5.64644661 C17.6685358,5.96142904 17.4454524,6.5 17,6.5 C16.492319,6.5 16.0054313,6.70167549 15.6464466,7.06066017 L15.6464466,7.06066017 L13.0606602,9.64644661 C12.4748737,10.232233 11.5251263,10.232233 10.9393398,9.64644661 L10.9393398,9.64644661 L8.35355339,7.06066017 C8.03131067,6.73841745 7.60496302,6.54200096 7.17136863,6.50718261 L7.17136863,6.50718261 L6.98020368,6.49960795 C6.54457803,6.48234685 6.33817104,5.95472218 6.64644661,5.64644661 L6.64644661,5.64644661 Z M13.767767,3.47487373 C12.7914562,2.498563 11.2085438,2.498563 10.232233,3.47487373 L10.232233,3.47487373 L8.021,5.685 L8.22058192,5.76792822 C8.46847955,5.88227085 8.70040209,6.03147642 8.90884637,6.21217611 L8.90884637,6.21217611 L9.06066017,6.35355339 L11.6464466,8.93933983 C11.8417088,9.13460197 12.1582912,9.13460197 12.3535534,8.93933983 L12.3535534,8.93933983 L14.9393398,6.35355339 C15.1877585,6.10513473 15.4764087,5.90619721 15.7899763,5.76308414 L15.7899763,5.76308414 L15.977,5.684 Z" id="icon" fill="#CC0000"></path>
    </g>
</svg>