<?xml version="1.0" encoding="UTF-8"?>
<svg width="24px" height="24px" viewBox="0 0 24 24" version="1.1" xmlns="http://www.w3.org/2000/svg" xmlns:xlink="http://www.w3.org/1999/xlink">
    <title>Icons / Banking / ic_bank_loan_48</title>
    <g id="Icons-/-Banking-/-ic_bank_loan" stroke="none" stroke-width="1" fill="none" fill-rule="evenodd">
        <path d="M2.13458875,19.1587136 L4.14644661,17.1464466 C4.34170876,16.9511845 4.65829124,16.9511845 4.85355339,17.1464466 C5.02711974,17.320013 5.04640489,17.5894374 4.91140884,17.7843055 L4.85355339,17.8535534 L3.707,19 L7.5,19 C7.74545989,19 7.94960837,19.1768752 7.99194433,19.4101244 L8,19.5 C8,19.7454599 7.82312484,19.9496084 7.58987563,19.9919443 L7.5,20 L3.707,20 L4.85355339,21.1464466 C5.02711974,21.320013 5.04640489,21.5894374 4.91140884,21.7843055 L4.85355339,21.8535534 C4.67998704,22.0271197 4.41056264,22.0464049 4.2156945,21.9114088 L4.14644661,21.8535534 L2.13444048,19.8411333 L2.13444048,19.8411333 C2.1229392,19.8288187 2.11192025,19.8157542 2.10158273,19.8021439 C2.09277454,19.7906092 2.08460935,19.7788346 2.07700705,19.7668065 C2.07001934,19.7556825 2.06329334,19.7440467 2.05703434,19.7321272 C2.04974961,19.7182757 2.04335147,19.7045389 2.03761056,19.6905951 C2.03240845,19.6780251 2.0275581,19.6647369 2.02326842,19.6511992 C2.01844802,19.6358347 2.01439613,19.6204743 2.01108568,19.6049871 L2.005,19.568 L2,19.5 L2,19.5 L2.00012342,19.4887791 L2.00012342,19.4887791 C2.00055436,19.468267 2.0023382,19.4470942 2.00546187,19.4260822 L2.01109223,19.3947723 L2.01109223,19.3947723 C2.01439613,19.3795257 2.01844802,19.3641653 2.02324135,19.3489884 L2.03779224,19.3089634 L2.03779224,19.3089634 C2.04335147,19.2954611 2.04974961,19.2817243 2.05680497,19.2682418 C2.06329334,19.2559533 2.07001934,19.2443175 2.07718801,19.2329897 L2.10158273,19.1978561 L2.104,19.193 L2.10898364,19.1883123 L2.10158273,19.1978561 C2.11192025,19.1842458 2.1229392,19.1711813 2.13458875,19.1587136 Z M11.4971033,4.9956 C11.7425632,4.9956 11.9467117,5.17247516 11.9890476,5.40572437 L11.9971033,5.4956 L11.9972545,7.04506065 C12.5125585,7.11149671 13.0287064,7.24215528 13.5348972,7.42051979 C13.9845074,7.5789472 14.3305195,7.73858314 14.5341352,7.84970994 C14.7765275,7.98199975 14.8657831,8.28573959 14.7334933,8.52813187 C14.6012035,8.77052416 14.2974637,8.85977986 14.0550714,8.72749006 C13.8954371,8.64036686 13.5968867,8.5026278 13.2025594,8.36368021 C12.548584,8.13324144 11.8811185,7.9956 11.2466033,7.9956 C9.90147576,7.9956 8.93760329,8.5932056 8.93760329,9.3576 C8.93760329,10.1551319 9.60051239,10.6253349 11.5048036,11.3231753 L11.7493474,11.4116312 L11.9457154,11.4817308 C14.3571318,12.3428952 15.2246033,12.8970998 15.2246033,14.2206 C15.2246033,15.7102292 13.9742515,16.5691823 11.9978198,16.7054162 L11.9971033,18.2246 C11.9971033,18.5007424 11.7732457,18.7246 11.4971033,18.7246 C11.2516434,18.7246 11.0474949,18.5477248 11.005159,18.3144756 L10.9971033,18.2246 L10.996082,16.7138307 C10.1517363,16.6706133 9.42847531,16.499316 8.82330814,16.2361102 C8.38341368,16.0447866 8.08803848,15.8452158 7.92828096,15.6959752 C7.72648979,15.5074681 7.71572093,15.1910688 7.90422805,14.9892777 C8.09273516,14.7874865 8.40913444,14.7767176 8.61092562,14.9652248 C8.69041811,15.0394842 8.8912304,15.1751634 9.22214844,15.3190898 C9.8018921,15.5712381 10.5313904,15.7246 11.4236033,15.7246 C13.249396,15.7246 14.2246033,15.1541917 14.2246033,14.2206 C14.2246033,13.5694991 13.6255896,13.1596759 11.8479905,12.5096653 L11.6093983,12.4234796 L11.4128592,12.3533188 C8.89248477,11.452727 7.93760329,10.8213792 7.93760329,9.3576 C7.93760329,7.9807858 9.28633135,7.08123648 10.9967767,7.00139378 L10.9971033,5.4956 C10.9971033,5.21945763 11.2209609,4.9956 11.4971033,4.9956 Z M19.7843055,2.08859116 L19.8535534,2.14644661 L21.8655595,4.15886672 L21.8655595,4.15886672 C21.8770608,4.17118132 21.8880797,4.18424576 21.8984173,4.19785608 C21.9072255,4.20939085 21.9153907,4.22116536 21.922993,4.23319348 C21.9299807,4.24431753 21.9367067,4.25595333 21.9429657,4.26787276 C21.9502504,4.28172431 21.9566485,4.29546114 21.9623894,4.3094049 C21.9675915,4.32197493 21.9724419,4.33526315 21.9767316,4.34880083 C21.981552,4.36416529 21.9856039,4.37952575 21.9889143,4.39501295 L21.9971799,4.44660248 L21.9971799,4.44660248 L21.997,4.454 L21.9948333,4.42809589 L22,4.5 L22,4.5 C22,4.50689494 21.9998604,4.51375728 21.999584,4.52058436 C21.998877,4.53773477 21.9972949,4.55487076 21.9948333,4.57190411 C21.9932298,4.58325248 21.9912471,4.59430622 21.9889078,4.60522765 C21.9856039,4.62047425 21.981552,4.63583471 21.9767587,4.65101164 L21.9622078,4.69103656 L21.9622078,4.69103656 C21.9566485,4.70453886 21.9502504,4.71827569 21.943195,4.73175819 C21.9367067,4.74404667 21.9299807,4.75568247 21.922812,4.76701032 L21.895,4.806 L21.864,4.841 L21.891,4.811 L21.8824063,4.82214364 C21.8769031,4.82866951 21.871236,4.83505256 21.8654113,4.84128643 L19.8535534,6.85355339 C19.6582912,7.04881554 19.3417088,7.04881554 19.1464466,6.85355339 C18.9728803,6.67998704 18.9535951,6.41056264 19.0885912,6.2156945 L19.1464466,6.14644661 L20.292,5 L16.5,5 C16.2545401,5 16.0503916,4.82312484 16.0080557,4.58987563 L16,4.5 C16,4.25454011 16.1768752,4.05039163 16.4101244,4.00805567 L16.5,4 L20.292,4 L19.1464466,2.85355339 C18.9728803,2.67998704 18.9535951,2.41056264 19.0885912,2.2156945 L19.1464466,2.14644661 C19.320013,1.97288026 19.5894374,1.95359511 19.7843055,2.08859116 Z" id="Icon" fill="#CC0000"></path>
    </g>
</svg>