<?xml version="1.0" encoding="UTF-8"?>
<svg width="48px" height="68px" viewBox="0 0 48 68" version="1.1" xmlns="http://www.w3.org/2000/svg" xmlns:xlink="http://www.w3.org/1999/xlink">
    <title>Icons / Documents / ic_bank_statement</title>
    <g id="LP-V2" stroke="none" stroke-width="1" fill="none" fill-rule="evenodd">
        <g id="Desk_V2" transform="translate(-713.000000, -2285.000000)" fill="#CC0000" fill-rule="nonzero">
            <g id="Icons-/-Documents-/-ic_bank_statement" transform="translate(713.666667, 2285.666667)">
                <path d="M45,0 C45.9204746,0 46.6666667,0.746192084 46.6666667,1.66666667 L46.6666667,65 C46.6666667,65.9204746 45.9204746,66.6666667 45,66.6666667 L1.66666667,66.6666667 C0.746192084,66.6666667 0,65.9204746 0,65 L0,1.66666667 C0,0.746192084 0.746192084,0 1.66666667,0 Z M43.3333333,3.33333333 L3.33333333,3.33333333 L3.33333333,63.3333333 L43.3333333,63.3333333 L43.3333333,3.33333333 Z M23.2746667,31.6673333 C24.1951412,31.6673333 24.9413333,32.4135254 24.9413333,33.334 L24.9414461,34.5707835 C25.5614836,34.7046943 26.1757701,34.8953903 26.7795774,35.1311375 C27.5175611,35.4192716 28.0892018,35.7116087 28.4408798,35.9244244 C29.2283876,36.4009798 29.4804643,37.4257054 29.0039089,38.2132132 C28.5273535,39.0007209 27.5026279,39.2527976 26.7151202,38.7762422 C26.5159649,38.6557247 26.1098973,38.4480617 25.5672559,38.2361959 C24.6782133,37.8890831 23.7787462,37.6836667 22.9513333,37.6836667 C21.3661955,37.6836667 20.3613333,38.3744425 20.3613333,39.147 C20.3613333,40.0781297 21.2275754,40.7128186 24.0749426,41.8403162 L24.3711016,41.9574771 C28.3662915,43.5385878 29.8946667,44.6207834 29.8946667,47.3203333 C29.8946667,50.0825021 27.9346309,51.7757107 24.9422637,52.2298544 L24.9413333,53.3643333 C24.9413333,54.2848079 24.1951412,55.031 23.2746667,55.031 C22.3541921,55.031 21.608,54.2848079 21.608,53.3643333 L21.6069866,52.2459319 C20.5746606,52.1030583 19.6571338,51.8231235 18.8555788,51.4364911 C18.0843225,51.0644733 17.5506523,50.6644424 17.2384019,50.3407069 C16.5993862,49.6781872 16.61844,48.6230843 17.2809597,47.9840686 C17.9434794,47.3450529 18.9985824,47.3641067 19.6375981,48.0266264 C19.6878477,48.0787243 19.9062608,48.2424433 20.3037545,48.4341756 C21.043676,48.7910789 21.9897186,49.0141214 23.171612,49.0202056 L23.2746667,49.0143333 C23.3056183,49.0143333 23.3363729,49.015177 23.3669086,49.0168427 L23.2213333,49.0203333 C25.5449863,49.0203333 26.5613333,48.3618686 26.5613333,47.3203333 C26.5613333,46.6516339 25.7849147,46.1018757 23.1444872,45.0569171 L22.8477241,44.9395171 C18.6997728,43.2970154 17.028,42.0721203 17.028,39.147 C17.028,36.6304893 19.0141868,34.9048661 21.6072537,34.4623737 L21.608,33.334 C21.608,32.4135254 22.3541921,31.6673333 23.2746667,31.6673333 Z M35,23.3333333 C35.9204746,23.3333333 36.6666667,24.0795254 36.6666667,25 C36.6666667,25.9204746 35.9204746,26.6666667 35,26.6666667 L11.6666667,26.6666667 C10.7461921,26.6666667 10,25.9204746 10,25 C10,24.0795254 10.7461921,23.3333333 11.6666667,23.3333333 Z M35,13.3333333 C35.9204746,13.3333333 36.6666667,14.0795254 36.6666667,15 C36.6666667,15.9204746 35.9204746,16.6666667 35,16.6666667 L11.6666667,16.6666667 C10.7461921,16.6666667 10,15.9204746 10,15 C10,14.0795254 10.7461921,13.3333333 11.6666667,13.3333333 Z" id="Icon"></path>
            </g>
        </g>
    </g>
</svg>