<svg xmlns="http://www.w3.org/2000/svg" width="40" height="40" viewBox="0 0 40 40">
                            <path fill="#C00" fill-rule="evenodd" d="M11.667 13.334c0-5.399 4.64-9.641 10.064-9.125C26.43 4.658 30 8.842 30 13.692v7.127h.818c1.787 0 3.248 1.4 3.344 3.164l.005.183v6.699c0 3.657-2.965 6.621-6.622 6.621H14.122c-3.657 0-6.622-2.964-6.622-6.621v-6.699c0-1.848 1.5-3.346 3.348-3.346L25 20.819v-7.495c0-2.232-1.754-4.053-3.959-4.162l-.208-.005c-2.301 0-4.166 1.866-4.166 4.167v1.677c0 1.38-1.12 2.5-2.5 2.5s-2.5-1.12-2.5-2.5zm19.151 9.152h-1.582l-.07.005-.07-.003-3.194-.002-.069.005c-.023 0-.047-.001-.07-.003l-14.915-.002c-.928 0-1.681.753-1.681 1.68v6.699c0 2.736 2.218 4.955 4.955 4.955h13.423c2.736 0 4.955-2.219 4.955-4.955v-6.699c0-.927-.753-1.68-1.682-1.68zm-9.985 3.338c.46 0 .834.373.834.833v5c0 .46-.373.834-.834.834-.46 0-.833-.373-.833-.834v-5c0-.46.373-.833.833-.833zm.74-19.955c-4.444-.424-8.24 3.047-8.24 7.465v1.667c0 .46.374.833.834.833.46 0 .833-.374.833-.833v-1.677c0-3.222 2.611-5.833 5.833-5.833s5.834 2.611 5.834 5.833l-.001 7.495h1.667v-7.127c0-3.927-2.816-7.312-6.518-7.796z">
                            </path>
                        </svg>