<?xml version="1.0" encoding="UTF-8"?>
<svg width="40px" height="68px" viewBox="0 0 40 68" version="1.1" xmlns="http://www.w3.org/2000/svg" xmlns:xlink="http://www.w3.org/1999/xlink">
    <title>Icons / Banking / ic_mobile</title>
    <g id="LP-V2" stroke="none" stroke-width="1" fill="none" fill-rule="evenodd">
        <g id="Desk_V2" transform="translate(-1108.000000, -2285.000000)" fill="#CC0000" fill-rule="nonzero">
            <g id="Icons-/-Banking-/-ic_mobile" transform="translate(1108.000000, 2285.666667)">
                <path d="M33.46,0 C37.0738079,0 40,2.92619208 40,6.54 L40,60.1233333 C40,63.7374254 37.0735248,66.6666667 33.46,66.6666667 L6.54,66.6666667 C2.92647524,66.6666667 0,63.7374254 0,60.1233333 L0,6.54 C0,2.92619208 2.92619208,0 6.54,0 L33.46,0 Z M33.46,3.33333333 L6.54,3.33333333 C4.76714125,3.33333333 3.33333333,4.76714125 3.33333333,6.54 L3.33333333,60.1233333 C3.33333333,61.8971808 4.76812973,63.3333333 6.54,63.3333333 L33.46,63.3333333 C35.2318703,63.3333333 36.6666667,61.8971808 36.6666667,60.1233333 L36.6666667,6.54 C36.6666667,4.76714125 35.2328588,3.33333333 33.46,3.33333333 Z M21.6666667,56.6653333 C22.5871412,56.6653333 23.3333333,57.4115254 23.3333333,58.332 C23.3333333,59.2524746 22.5871412,59.9986667 21.6666667,59.9986667 L18.3333333,59.9986667 C17.4128588,59.9986667 16.6666667,59.2524746 16.6666667,58.332 C16.6666667,57.4115254 17.4128588,56.6653333 18.3333333,56.6653333 L21.6666667,56.6653333 Z M25,6.66533333 C25.9204746,6.66533333 26.6666667,7.41152542 26.6666667,8.332 C26.6666667,9.25247458 25.9204746,9.99866667 25,9.99866667 L15,9.99866667 C14.0795254,9.99866667 13.3333333,9.25247458 13.3333333,8.332 C13.3333333,7.41152542 14.0795254,6.66533333 15,6.66533333 Z" id="Icon"></path>
            </g>
        </g>
    </g>
</svg>